HIERARCHY
ROOT Root
{
	OFFSET 0.00000 0.00000 0.00000
	CHANNELS 6 Xposition Yposition Zposition Zrotation Xrotation Yrotation
	JOINT Hips
	{
		OFFSET 0 0 0	
		CHANNELS 3 Zrotation Xrotation Yrotation
		JOINT Spine
		{
			OFFSET 0 4 0	
			CHANNELS 3 Zrotation Xrotation Yrotation
			JOINT Spine1
			{
				OFFSET 0 19.4 0	
				CHANNELS 3 Zrotation Xrotation Yrotation
				JOINT Spine2
				{
					OFFSET 0 16.6 0	
					CHANNELS 3 Zrotation Xrotation Yrotation
					JOINT LeftCollar
					{
						OFFSET 0 10 0	
						CHANNELS 3 Zrotation Xrotation Yrotation
						JOINT LeftArm
						{
							OFFSET 15.6 -2 3	
							CHANNELS 3 Zrotation Xrotation Yrotation
							JOINT LeftForeArm
							{
								OFFSET 3.5 -27 -1	
								CHANNELS 3 Zrotation Xrotation Yrotation
								JOINT LeftHand
								{
									OFFSET 1 -27 1	
									CHANNELS 3 Zrotation Xrotation Yrotation
									End Site
									{
										OFFSET 0 -15 0
									}
								}
							}
						}
					}
					JOINT RightCollar
					{
						OFFSET 0 10 0	
						CHANNELS 3 Zrotation Xrotation Yrotation
						JOINT RightArm
						{
							OFFSET -15.6 -2 3	
							CHANNELS 3 Zrotation Xrotation Yrotation
							JOINT RightForeArm
							{
								OFFSET -3.5 -27 -1	
								CHANNELS 3 Zrotation Xrotation Yrotation
								JOINT RightHand
								{
									OFFSET -1 -27 1	
									CHANNELS 3 Zrotation Xrotation Yrotation
									End Site
									{
										OFFSET 0 -15 0
									}
								}
							}
						}
					}
					JOINT Neck
					{
						OFFSET 0 10 0	
						CHANNELS 3 Zrotation Xrotation Yrotation
						JOINT Head
						{
							OFFSET 0 12.7 3	
							CHANNELS 3 Zrotation Xrotation Yrotation
							End Site
							{
								OFFSET 0 12.7 3
							}
						}
					}
				}
			}
		}
	}
	JOINT LeftHip
	{
		OFFSET 0 0 0	
		CHANNELS 3 Zrotation Xrotation Yrotation
		JOINT LeftUpLeg
		{
			OFFSET 8.8 -6 0	
			CHANNELS 3 Zrotation Xrotation Yrotation
			JOINT LeftLeg
			{
				OFFSET 0 -39 2	
				CHANNELS 3 Zrotation Xrotation Yrotation
				JOINT LeftFoot
				{
					OFFSET 0 -43 -2	
					CHANNELS 3 Zrotation Xrotation Yrotation
					JOINT LeftFootFront
					{
						OFFSET 0 -7 8.5	
						CHANNELS 3 Zrotation Xrotation Yrotation
						End Site
						{
							OFFSET 0 -0.5 9
						}
					}
				}
				JOINT LeftHeel
				{
					OFFSET 0 -43 -2	
					CHANNELS 3 Zrotation Xrotation Yrotation
					End Site
					{
						OFFSET 0 -7.5 -5
					}
				}
			}
		}
	}
	JOINT RightHip
	{
		OFFSET 0 0 0	
		CHANNELS 3 Zrotation Xrotation Yrotation
		JOINT RightUpLeg
		{
			OFFSET -8.8 -6 0	
			CHANNELS 3 Zrotation Xrotation Yrotation
			JOINT RightLeg
			{
				OFFSET 0 -39 2	
				CHANNELS 3 Zrotation Xrotation Yrotation
				JOINT RightFoot
				{
					OFFSET 0 -43 -2	
					CHANNELS 3 Zrotation Xrotation Yrotation
					JOINT RightFootFront
					{
						OFFSET 0 -7 8.5	
						CHANNELS 3 Zrotation Xrotation Yrotation
						End Site
						{
							OFFSET 0 -0.5 9
						}
					}
				}
				JOINT RightHeel
				{
					OFFSET 0 -43 -2	
					CHANNELS 3 Zrotation Xrotation Yrotation
					End Site
					{
						OFFSET 0 -7.5 -5
					}
				}
			}
		}
	}
}
MOTION
Frames: 12
Frame Time: 0.05
0 95.5 0 -0 0 -0 -0 0 -0 -0 0 -0 4.1795 8.0125 -3.8762 -0 0 -0 -0 0 -0 -3.8248 -47.248 -13.725 -70.651 -29.104 -65.864 -0 0 -0 -0 0 -0 -8.7133 -30.304 11.471 34.967 -68.102 -0.19145 -0 0 -0 -3.0603 -13.62 5.4622 -3.0603 -13.62 5.4622 -0 0 -0 -0 0 -0 -0 0 -0 -0 0 -0 -0 0 -0 -0 0 -0 -0 0 -0 -0 0 -0 -0 0 -0 -0 0 -0 -0 0 -0 -0 0 -0 
0 95.5 0 -0 0 -0 -0 0 -0 -0 0 -0 4.1892 8.0439 -3.9115 -0 0 -0 -0 0 -0 -3.7894 -47.284 -13.703 -70.625 -29.128 -65.827 -0 0 -0 -0 0 -0 -8.6249 -30.493 11.735 34.395 -68.063 -0.558 -0 0 -0 -3.0334 -13.652 5.5107 -3.0334 -13.652 5.5107 -0 0 -0 -0 0 -0 -0 0 -0 -0 0 -0 -0 0 -0 -0 0 -0 -0 0 -0 -0 0 -0 -0 0 -0 -0 0 -0 -0 0 -0 -0 0 -0 
0 95.5 0 -0 0 -0 -0 0 -0 -0 0 -0 4.2525 8.0963 -3.96 -0 0 -0 -0 0 -0 -3.8004 -47.344 -13.677 -70.556 -29.145 -65.741 -0 0 -0 -0 0 -0 -8.5435 -30.688 12.092 33.673 -68.066 -1.3145 -0 0 -0 -3.0307 -13.694 5.5653 -3.0307 -13.694 5.5653 -0 0 -0 -0 0 -0 -0 0 -0 -0 0 -0 -0 0 -0 -0 0 -0 -0 0 -0 -0 0 -0 -0 0 -0 -0 0 -0 -0 0 -0 -0 0 -0 
0 95.5 0 -0 0 -0 -0 0 -0 -0 0 -0 4.3399 8.2133 -3.9882 -0 0 -0 -0 0 -0 -3.8512 -47.449 -13.723 -70.491 -29.206 -65.645 -0 0 -0 -0 0 -0 -8.5084 -30.885 12.382 33.018 -67.995 -2.1015 -0 0 -0 -3.0375 -13.748 5.5979 -3.0375 -13.748 5.5979 -0 0 -0 -0 0 -0 -0 0 -0 -0 0 -0 -0 0 -0 -0 0 -0 -0 0 -0 -0 0 -0 -0 0 -0 -0 0 -0 -0 0 -0 -0 0 -0 
0 95.5 0 -0 0 -0 -0 0 -0 -0 0 -0 4.4114 8.3299 -3.9883 -0 0 -0 -0 0 -0 -3.8895 -47.546 -13.751 -70.443 -29.237 -65.584 -0 0 -0 -0 0 -0 -8.5144 -31.078 12.547 32.612 -68.015 -2.4574 -0 0 -0 -3.0254 -13.754 5.5933 -3.0254 -13.754 5.5933 -0 0 -0 -0 0 -0 -0 0 -0 -0 0 -0 -0 0 -0 -0 0 -0 -0 0 -0 -0 0 -0 -0 0 -0 -0 0 -0 -0 0 -0 -0 0 -0 
0 95.5 0 -0 0 -0 -0 0 -0 -0 0 -0 4.4772 8.3905 -4.0085 -0 0 -0 -0 0 -0 -3.8919 -47.593 -13.684 -70.398 -29.212 -65.523 -0 0 -0 -0 0 -0 -8.576 -31.312 12.741 32.318 -68.053 -2.8393 -0 0 -0 -2.9938 -13.737 5.6198 -2.9938 -13.737 5.6198 -0 0 -0 -0 0 -0 -0 0 -0 -0 0 -0 -0 0 -0 -0 0 -0 -0 0 -0 -0 0 -0 -0 0 -0 -0 0 -0 -0 0 -0 -0 0 -0 
0 95.5 0 -0 0 -0 -0 0 -0 -0 0 -0 4.58 8.4283 -4.0571 -0 0 -0 -0 0 -0 -3.8935 -47.596 -13.608 -70.367 -29.219 -65.472 -0 0 -0 -0 0 -0 -8.6974 -31.577 13.057 31.886 -68.153 -3.1426 -0 0 -0 -2.9876 -13.751 5.675 -2.9876 -13.751 5.675 -0 0 -0 -0 0 -0 -0 0 -0 -0 0 -0 -0 0 -0 -0 0 -0 -0 0 -0 -0 0 -0 -0 0 -0 -0 0 -0 -0 0 -0 -0 0 -0 
0 95.5 0 -0 0 -0 -0 0 -0 -0 0 -0 4.6704 8.4993 -4.0873 -0 0 -0 -0 0 -0 -3.9002 -47.621 -13.624 -70.35 -29.283 -65.433 -0 0 -0 -0 0 -0 -8.7599 -31.91 13.402 31.407 -68.306 -3.497 -0 0 -0 -2.9753 -13.753 5.7074 -2.9753 -13.753 5.7074 -0 0 -0 -0 0 -0 -0 0 -0 -0 0 -0 -0 0 -0 -0 0 -0 -0 0 -0 -0 0 -0 -0 0 -0 -0 0 -0 -0 0 -0 -0 0 -0 
0 95.5 0 -0 0 -0 -0 0 -0 -0 0 -0 4.7078 8.5936 -4.108 -0 0 -0 -0 0 -0 -3.8906 -47.675 -13.628 -70.355 -29.322 -65.43 -0 0 -0 -0 0 -0 -8.658 -32.374 13.864 31.15 -68.815 -3.4862 -0 0 -0 -2.9305 -13.746 5.6993 -2.9305 -13.746 5.6993 -0 0 -0 -0 0 -0 -0 0 -0 -0 0 -0 -0 0 -0 -0 0 -0 -0 0 -0 -0 0 -0 -0 0 -0 -0 0 -0 -0 0 -0 -0 0 -0 
0 95.5 0 -0 0 -0 -0 0 -0 -0 0 -0 4.686 8.6576 -4.1167 -0 0 -0 -0 0 -0 -3.8565 -47.731 -13.616 -70.362 -29.337 -65.414 -0 0 -0 -0 0 -0 -8.4067 -32.927 14.543 30.375 -69.372 -3.8557 -0 0 -0 -2.8729 -13.735 5.6682 -2.8729 -13.735 5.6682 -0 0 -0 -0 0 -0 -0 0 -0 -0 0 -0 -0 0 -0 -0 0 -0 -0 0 -0 -0 0 -0 -0 0 -0 -0 0 -0 -0 0 -0 -0 0 -0 
0 95.5 0 -0 0 -0 -0 0 -0 -0 0 -0 4.6461 8.7124 -4.0967 -0 0 -0 -0 0 -0 -3.854 -47.808 -13.672 -70.351 -29.365 -65.362 -0 0 -0 -0 0 -0 -8.1003 -33.586 15.34 29.432 -70.12 -4.4352 -0 0 -0 -2.8253 -13.732 5.641 -2.8253 -13.732 5.641 -0 0 -0 -0 0 -0 -0 0 -0 -0 0 -0 -0 0 -0 -0 0 -0 -0 0 -0 -0 0 -0 -0 0 -0 -0 0 -0 -0 0 -0 -0 0 -0 
0 95.5 0 -0 0 -0 -0 0 -0 -0 0 -0 4.6211 8.7733 -4.0351 -0 0 -0 -0 0 -0 -3.9342 -47.879 -13.82 -70.327 -29.398 -65.325 -0 0 -0 -0 0 -0 -7.8056 -34.379 16.172 28.628 -71.021 -5.058 -0 0 -0 -2.8107 -13.773 5.6457 -2.8107 -13.773 5.6457 -0 0 -0 -0 0 -0 -0 0 -0 -0 0 -0 -0 0 -0 -0 0 -0 -0 0 -0 -0 0 -0 -0 0 -0 -0 0 -0 -0 0 -0 -0 0 -0 
